<svg width="21" height="20" viewBox="0 0 21 20" fill="none" xmlns="http://www.w3.org/2000/svg">
<path fill-rule="evenodd" clip-rule="evenodd" d="M5.763 7.29301C5.95053 7.10553 6.20484 7.00022 6.47 7.00022C6.73517 7.00022 6.98947 7.10553 7.177 7.29301L10.47 10.586L13.763 7.29301C13.8552 7.19749 13.9656 7.12131 14.0876 7.0689C14.2096 7.01649 14.3408 6.98891 14.4736 6.98775C14.6064 6.9866 14.7381 7.0119 14.861 7.06218C14.9839 7.11246 15.0955 7.18672 15.1894 7.28061C15.2833 7.3745 15.3575 7.48615 15.4078 7.60905C15.4581 7.73195 15.4834 7.86363 15.4823 7.99641C15.4811 8.12919 15.4535 8.26041 15.4011 8.38241C15.3487 8.50441 15.2725 8.61476 15.177 8.707L11.177 12.707C10.9895 12.8945 10.7352 12.9998 10.47 12.9998C10.2048 12.9998 9.95053 12.8945 9.763 12.707L5.763 8.707C5.57553 8.51948 5.47021 8.26517 5.47021 8C5.47021 7.73484 5.57553 7.48053 5.763 7.29301Z" fill="#374151"/>
</svg>
