<svg width="16" height="17" viewBox="0 0 16 17" fill="none" xmlns="http://www.w3.org/2000/svg">
<path d="M15.75 8.37988C15.75 12.661 12.2799 16.1299 8 16.1299C3.72009 16.1299 0.25 12.661 0.25 8.37988C0.25 4.10123 3.72009 0.629883 8 0.629883C12.2799 0.629883 15.75 4.10123 15.75 8.37988ZM8.20797 3.19238C6.50494 3.19238 5.41875 3.90979 4.56581 5.18482C4.45531 5.35001 4.49228 5.57279 4.65066 5.69288L5.735 6.51507C5.89766 6.63841 6.12941 6.60907 6.25578 6.44876C6.81403 5.74069 7.19681 5.3301 8.0465 5.3301C8.68491 5.3301 9.47456 5.74098 9.47456 6.36004C9.47456 6.82804 9.08822 7.06838 8.45788 7.42179C7.72275 7.83388 6.75 8.34679 6.75 9.62988V9.75488C6.75 9.96198 6.91791 10.1299 7.125 10.1299H8.875C9.08209 10.1299 9.25 9.96198 9.25 9.75488V9.71323C9.25 8.82379 11.8496 8.78676 11.8496 6.37988C11.8496 4.56732 9.96941 3.19238 8.20797 3.19238ZM8 10.9424C7.20734 10.9424 6.5625 11.5872 6.5625 12.3799C6.5625 13.1725 7.20734 13.8174 8 13.8174C8.79266 13.8174 9.4375 13.1725 9.4375 12.3799C9.4375 11.5872 8.79266 10.9424 8 10.9424Z" fill="#6B7280"/>
</svg>
