<svg width="25" height="26" viewBox="0 0 25 26" fill="none" xmlns="http://www.w3.org/2000/svg">
<g clip-path="url(#clip0_3_19)">
<g clip-path="url(#clip1_3_19)">
<g clip-path="url(#clip2_3_19)">
<path d="M0 13.05C0 6.14649 5.59644 0.550049 12.5 0.550049C19.4036 0.550049 25 6.14649 25 13.05C25 19.9536 19.4036 25.55 12.5 25.55C5.59644 25.55 0 19.9536 0 13.05Z" fill="#d7ecf1"/>
<path d="M12.7995 12.0594C11.9913 11.8965 11.2812 11.4582 10.8134 10.8336C10.7384 10.7347 10.6861 10.6229 10.6598 10.505C10.6334 10.3871 10.6335 10.2654 10.6601 10.1475C10.8909 9.38528 12.1944 8.96067 13.4555 9.24122C14.0436 9.35981 14.5767 9.64302 14.9807 10.0515C15.0868 10.1668 15.2168 10.2618 15.3632 10.3311C15.5096 10.4003 15.6694 10.4424 15.8337 10.4549C15.998 10.4674 16.1633 10.45 16.3201 10.4039C16.477 10.3577 16.6224 10.2836 16.7479 10.1859C16.8734 10.0882 16.9765 9.96872 17.0512 9.83442C17.1261 9.70013 17.1711 9.55364 17.1838 9.40333C17.1965 9.25302 17.1766 9.10192 17.1251 8.95872C17.0737 8.81552 16.9919 8.68302 16.8843 8.5688C16.1395 7.79471 15.1487 7.25308 14.0505 7.01982C13.9839 7.00457 13.9189 7.00305 13.8522 6.99085V6.38101C13.8522 6.07774 13.7205 5.7869 13.486 5.57246C13.2516 5.35802 12.9336 5.23755 12.602 5.23755C12.2705 5.23755 11.9525 5.35802 11.718 5.57246C11.4836 5.7869 11.3519 6.07774 11.3519 6.38101V7.00915C10.6335 7.1356 9.96601 7.43747 9.41999 7.88277C8.87398 8.32806 8.46991 8.90021 8.25062 9.53849C8.13413 9.95122 8.11015 10.3812 8.17999 10.8026C8.24991 11.2241 8.41226 11.6283 8.65734 11.9908C9.46374 13.1522 10.7399 13.9743 12.2069 14.2777C13.0155 14.4409 13.7258 14.8798 14.1931 15.505C14.2683 15.6039 14.3207 15.7157 14.3472 15.8336C14.3737 15.9515 14.3737 16.0732 14.3473 16.1911C14.1148 16.9534 12.8104 17.3765 11.5511 17.0975C10.9569 16.979 10.4192 16.6912 10.015 16.2758C9.80124 16.0459 9.49687 15.9026 9.16812 15.8772C8.83937 15.8517 8.51296 15.9461 8.26007 16.1399C8.0071 16.3336 7.84812 16.6109 7.8178 16.9114C7.78745 17.2118 7.8882 17.5111 8.09812 17.744C8.8457 18.5332 9.84781 19.0851 10.9601 19.3204C11.0901 19.3493 11.2194 19.3639 11.3494 19.3852V19.7191C11.3494 20.0223 11.4811 20.3132 11.7155 20.5276C11.95 20.7421 12.268 20.8625 12.5995 20.8625C12.9311 20.8625 13.2491 20.7421 13.4835 20.5276C13.718 20.3132 13.8497 20.0223 13.8497 19.7191V19.296C14.5294 19.1472 15.1551 18.839 15.6649 18.4017C16.1748 17.9645 16.5514 17.4133 16.7576 16.8025C16.8738 16.3897 16.8976 15.9597 16.8276 15.5383C16.7576 15.1168 16.5951 14.7127 16.3501 14.3501C15.544 13.1875 14.2675 12.364 12.7995 12.0594Z" fill="#3acaf2"/>
</g>
</g>
</g>
<defs>
<clipPath id="clip0_3_19">
<rect width="25" height="25" fill="white" transform="translate(0 0.550049)"/>
</clipPath>
<clipPath id="clip1_3_19">
<rect width="25" height="25" fill="white" transform="translate(0 0.550049)"/>
</clipPath>
<clipPath id="clip2_3_19">
<rect width="25" height="25" fill="white" transform="translate(0 0.550049)"/>
</clipPath>
</defs>
</svg>
