<svg width="65" height="64" viewBox="0 0 65 64" fill="none" xmlns="http://www.w3.org/2000/svg">
<g clip-path="url(#clip0_3_448)">
<g clip-path="url(#clip1_3_448)">
<g clip-path="url(#clip2_3_448)">
<path d="M1.24683 11.1483C1.24683 5.37783 5.9247 0.699951 11.6952 0.699951H53.4885C59.259 0.699951 63.9368 5.37783 63.9368 11.1483V52.9416C63.9368 58.7121 59.259 63.3899 53.4885 63.3899H11.6952C5.9247 63.3899 1.24683 58.7121 1.24683 52.9416V11.1483Z" fill="#F5EBF9"/>
<mask id="mask0_3_448" style="mask-type:luminance" maskUnits="userSpaceOnUse" x="19" y="18" width="27" height="28">
<path d="M45.6523 18.9846H19.5315V45.1055H45.6523V18.9846Z" fill="white"/>
</mask>
<g mask="url(#mask0_3_448)">
<path d="M25.0439 28.4832H20.9096C20.5441 28.4832 20.1935 28.6195 19.9351 28.8623C19.6767 29.1051 19.5315 29.4343 19.5315 29.7776V41.428C19.5315 42.1146 19.8218 42.7731 20.3388 43.2587C20.8557 43.7441 21.5566 44.017 22.2876 44.017H23.6658C24.3968 44.017 25.0978 43.7441 25.6146 43.2587C26.1316 42.7731 26.422 42.1146 26.422 41.428V29.7776C26.422 29.4343 26.2768 29.1051 26.0183 28.8623C25.7599 28.6195 25.4093 28.4832 25.0439 28.4832Z" fill="#57009C"/>
<path d="M42.8958 28.4831H37.4468L39.5939 22.6579C39.6643 22.1249 39.5341 21.5855 39.2257 21.1331C38.9174 20.6808 38.4502 20.344 37.9053 20.1811C37.3604 20.0182 36.7721 20.0395 36.2421 20.2413C35.7121 20.443 35.2739 20.8124 35.0034 21.2857C33.4106 23.8392 31.4503 26.174 29.1782 28.2242V40.6331H29.3353C32.2417 41.3878 36.0894 42.7223 39.6518 42.7223C41.5812 42.7223 41.8457 42.0415 42.2426 41.0176L45.4866 31.9561C45.6379 31.5651 45.6866 31.1455 45.6286 30.733C45.5706 30.3204 45.4076 29.9272 45.1533 29.5863C44.8992 29.2456 44.5613 28.9674 44.1683 28.7754C43.7753 28.5833 43.3388 28.483 42.8958 28.4831Z" fill="#57009C"/>
</g>
</g>
</g>
</g>
<defs>
<clipPath id="clip0_3_448">
<rect width="64" height="62.69" fill="white" transform="translate(0.200073 0.699951)"/>
</clipPath>
<clipPath id="clip1_3_448">
<rect width="64" height="62.69" fill="white" transform="translate(0.200073 0.699951)"/>
</clipPath>
<clipPath id="clip2_3_448">
<rect width="63.996" height="62.69" fill="white" transform="translate(0.202026 0.699951)"/>
</clipPath>
</defs>
</svg>
