<svg width="65" height="64" viewBox="0 0 65 64" fill="none" xmlns="http://www.w3.org/2000/svg">
<g clip-path="url(#clip0_3_436)">
<g clip-path="url(#clip1_3_436)">
<g clip-path="url(#clip2_3_436)">
<path d="M1.12427 11.1483C1.12427 5.37783 5.80215 0.699951 11.5726 0.699951H53.366C59.1363 0.699951 63.8143 5.37783 63.8143 11.1483V52.9416C63.8143 58.7121 59.1363 63.3899 53.366 63.3899H11.5726C5.80215 63.3899 1.12427 58.7121 1.12427 52.9416V11.1483Z" fill="#F5EBF9"/>
<mask id="mask0_3_436" style="mask-type:luminance" maskUnits="userSpaceOnUse" x="19" y="18" width="27" height="28">
<path d="M45.5298 18.9846H19.4089V45.1055H45.5298V18.9846Z" fill="white"/>
</mask>
<g mask="url(#mask0_3_436)">
<path d="M45.3992 30.2553C45.3992 30.2429 45.3992 30.2291 45.3913 30.218L42.7792 24.6898C42.6708 24.4603 42.5042 24.2673 42.298 24.1322C42.0917 23.9973 41.854 23.9257 41.6116 23.9256H36.3875C36.3875 23.1924 36.1122 22.4894 35.6224 21.971C35.1325 21.4526 34.4681 21.1614 33.7754 21.1614H22.021C21.3282 21.1614 20.6638 21.4526 20.1739 21.971C19.6841 22.4894 19.4089 23.1924 19.4089 23.9256V36.3641C19.4089 36.7306 19.5465 37.0822 19.7915 37.3413C20.0364 37.6005 20.3685 37.7461 20.715 37.7461H21.1068C21.0673 37.9742 21.045 38.2052 21.0402 38.4372C21.0402 39.6284 21.4874 40.7708 22.2834 41.6132C23.0794 42.4556 24.159 42.9288 25.2848 42.9288C26.4105 42.9288 27.4902 42.4556 28.2862 41.6132C29.0823 40.7708 29.5295 39.6284 29.5295 38.4372C29.5254 38.2054 29.504 37.9743 29.4655 37.7461H35.4732C35.4338 37.9742 35.4115 38.2052 35.4066 38.4372C35.4066 39.6284 35.8538 40.7708 36.6499 41.6132C37.4459 42.4556 38.5255 42.9288 39.6513 42.9288C40.777 42.9288 41.8567 42.4556 42.6527 41.6132C43.4487 40.7708 43.8959 39.6284 43.8959 38.4372C43.8919 38.2054 43.8704 37.9743 43.8319 37.7461H44.2237C44.5701 37.7461 44.9022 37.6005 45.1472 37.3413C45.3921 37.0822 45.5298 36.7306 45.5298 36.3641V30.8359C45.527 30.6345 45.4825 30.4364 45.3992 30.2553ZM40.8045 26.6897L42.1106 29.4538H36.3875V26.6897H40.8045ZM25.2861 40.1647C24.9631 40.1647 24.6476 40.0633 24.3791 39.8736C24.1106 39.6837 23.9013 39.414 23.7778 39.0983C23.6542 38.7826 23.622 38.4352 23.6849 38.1001C23.7479 37.765 23.9034 37.4571 24.1317 37.2155C24.36 36.9739 24.6509 36.8095 24.9676 36.7427C25.2843 36.6761 25.6125 36.7103 25.9108 36.8411C26.2091 36.9718 26.464 37.1933 26.6435 37.4774C26.8229 37.7614 26.9187 38.0954 26.9187 38.4372C26.9179 38.8951 26.7458 39.334 26.4398 39.6579C26.1337 39.9817 25.7188 40.164 25.2861 40.1647ZM39.6526 40.1647C39.3296 40.1647 39.0141 40.0633 38.7455 39.8736C38.477 39.6837 38.2678 39.414 38.1442 39.0983C38.0207 38.7826 37.9884 38.4352 38.0514 38.1001C38.1143 37.765 38.2699 37.4571 38.4982 37.2155C38.7265 36.9739 39.0173 36.8095 39.334 36.7427C39.6508 36.6761 39.979 36.7103 40.2773 36.8411C40.5756 36.9718 40.8305 37.1933 41.01 37.4774C41.1894 37.7614 41.2851 38.0954 41.2851 38.4372C41.2844 38.8951 41.1122 39.334 40.8062 39.6579C40.5002 39.9817 40.0853 40.164 39.6526 40.1647Z" fill="#57009C"/>
</g>
</g>
</g>
</g>
<defs>
<clipPath id="clip0_3_436">
<rect width="64" height="62.69" fill="white" transform="translate(0.599976 0.699951)"/>
</clipPath>
<clipPath id="clip1_3_436">
<rect width="64" height="62.69" fill="white" transform="translate(0.599976 0.699951)"/>
</clipPath>
<clipPath id="clip2_3_436">
<rect width="63.996" height="62.69" fill="white" transform="translate(0.601929 0.699951)"/>
</clipPath>
</defs>
</svg>
