<svg width="65" height="64" viewBox="0 0 65 64" fill="none" xmlns="http://www.w3.org/2000/svg">
<g clip-path="url(#clip0_3_413)">
<g clip-path="url(#clip1_3_413)">
<g clip-path="url(#clip2_3_413)">
<path d="M1.18561 11.1483C1.18561 5.37783 5.86348 0.699951 11.6339 0.699951H53.4273C59.1978 0.699951 63.8756 5.37783 63.8756 11.1483V52.9416C63.8756 58.7121 59.1978 63.3899 53.4273 63.3899H11.6339C5.86348 63.3899 1.18561 58.7121 1.18561 52.9416V11.1483Z" fill="#F5EBF9"/>
<path d="M44.2484 20.1117C44.2411 20.0198 44.2231 19.9291 44.1949 19.8414C44.1579 19.7536 44.1111 19.6703 44.0552 19.5932C44.0302 19.541 44.0019 19.4903 43.9703 19.4417C43.9598 19.4287 43.9441 19.4248 43.9337 19.413C43.8647 19.3452 43.7886 19.2853 43.7064 19.2341C43.6485 19.188 43.5868 19.1464 43.5223 19.11C43.4498 19.0832 43.3751 19.0627 43.299 19.0486C43.2111 19.0212 43.1204 19.0032 43.0287 18.9951C43.0118 18.9938 42.9974 18.9846 42.9791 18.9846H38.7909C38.4445 18.9846 38.1124 19.1223 37.8674 19.3672C37.6225 19.612 37.485 19.9443 37.485 20.2907C37.485 20.637 37.6225 20.9693 37.8674 21.2142C38.1124 21.459 38.4445 21.5967 38.7909 21.5967H39.4439L33.4992 26.6903L28.9283 25.5488C28.7333 25.5001 28.5297 25.4969 28.3334 25.5398C28.137 25.5825 27.9531 25.6701 27.7961 25.7956L21.2664 31.0198C20.9958 31.2363 20.8224 31.5514 20.7842 31.8958C20.746 32.2402 20.8461 32.5856 21.0627 32.8561C21.2791 33.1266 21.5942 33.3 21.9385 33.3383C22.2829 33.3764 22.6284 33.2764 22.8989 33.0598L28.9244 28.2445L33.5214 29.3938C33.7235 29.4441 33.9346 29.4452 34.1372 29.3973C34.3399 29.3494 34.5281 29.2536 34.6863 29.1182L41.6731 23.1287V24.4791C41.6731 24.8255 41.8107 25.1578 42.0556 25.4026C42.3005 25.6475 42.6327 25.7852 42.9791 25.7852C43.3255 25.7852 43.6576 25.6475 43.9025 25.4026C44.1474 25.1578 44.285 24.8255 44.285 24.4791V20.2907C44.2774 20.2302 44.2653 20.1704 44.2484 20.1117Z" fill="#57009C"/>
<path d="M37.1023 30.739C35.6817 30.739 34.293 31.1603 33.1118 31.9496C31.9306 32.739 31.01 33.8607 30.4663 35.1733C29.9227 36.4859 29.7805 37.9302 30.0576 39.3236C30.3348 40.717 31.0188 41.997 32.0234 43.0016C33.0278 44.0062 34.3076 44.6903 35.701 44.9674C37.0943 45.2446 38.5385 45.1023 39.851 44.5586C41.1634 44.0151 42.2852 43.0943 43.0744 41.913C43.8637 40.7318 44.285 39.343 44.285 37.9222C44.285 36.0171 43.5283 34.1901 42.1812 32.8429C40.8342 31.4959 39.0073 30.739 37.1023 30.739ZM37.4157 36.7351C38.462 36.9759 39.3705 37.6211 39.9427 38.5296C40.1307 38.8358 40.2548 39.1771 40.3073 39.5326C40.3598 39.8882 40.3397 40.2508 40.2483 40.5983C40.1181 41.0352 39.8882 41.4359 39.5769 41.7688C39.2655 42.1017 38.8811 42.3578 38.4539 42.5169C38.4382 42.8356 38.3042 43.1369 38.0784 43.362C37.8525 43.5872 37.5508 43.7202 37.2321 43.7348C36.9134 43.7495 36.6008 43.6449 36.3551 43.4414C36.1094 43.238 35.9484 42.9502 35.9035 42.6344C35.155 42.4371 34.4836 42.0183 33.9772 41.4329C33.7549 41.1668 33.6476 40.8235 33.6785 40.4782C33.7095 40.133 33.8764 39.8142 34.1424 39.592C34.4083 39.3699 34.7517 39.2624 35.0969 39.2933C35.4422 39.3244 35.7609 39.4912 35.983 39.7572C36.1587 39.9496 36.3902 40.0822 36.6452 40.136C36.8293 40.2064 37.0301 40.2215 37.2227 40.1799C37.4155 40.1381 37.5918 40.0412 37.7305 39.9009C37.6248 39.7392 37.488 39.6004 37.3277 39.4924C37.1676 39.3845 36.9875 39.3098 36.798 39.2727C35.7517 39.0324 34.8435 38.3871 34.2722 37.4782C34.0848 37.1717 33.9611 36.8304 33.9089 36.4749C33.8565 36.1194 33.8766 35.757 33.9681 35.4094C34.1045 34.9566 34.3479 34.5431 34.6774 34.2038C35.0069 33.8645 35.4131 33.6093 35.8617 33.4595V33.4203C35.8617 33.074 35.9992 32.7417 36.2441 32.4968C36.489 32.2519 36.8212 32.1143 37.1676 32.1143C37.514 32.1143 37.8461 32.2519 38.091 32.4968C38.336 32.7417 38.4735 33.074 38.4735 33.4203C39.1482 33.6275 39.7524 34.017 40.2196 34.5461C40.3311 34.6769 40.4157 34.8282 40.4686 34.9916C40.5216 35.155 40.5419 35.3273 40.5283 35.4985C40.5147 35.6697 40.4676 35.8366 40.3895 35.9897C40.3115 36.1426 40.204 36.2787 40.0733 36.3903C39.9427 36.5018 39.7913 36.5864 39.6279 36.6393C39.4645 36.6923 39.2923 36.7126 39.121 36.699C38.9498 36.6854 38.7829 36.6383 38.63 36.5602C38.4769 36.4821 38.3408 36.3747 38.2293 36.244C38.0524 36.0541 37.8211 35.9236 37.5672 35.8705C37.3834 35.8002 37.1831 35.7849 36.9909 35.8267C36.7986 35.8685 36.6226 35.9654 36.4845 36.1055C36.5902 36.267 36.7269 36.4058 36.8868 36.5139C37.0467 36.6221 37.2265 36.6972 37.4157 36.7351Z" fill="#57009C"/>
<path d="M27.3077 45.1053C26.9613 45.1053 26.6292 44.9677 26.3843 44.7228C26.1393 44.4779 26.0017 44.1456 26.0017 43.7993V35.963C26.0017 35.6167 26.1393 35.2844 26.3843 35.0395C26.6292 34.7946 26.9613 34.657 27.3077 34.657C27.654 34.657 27.9863 34.7946 28.2312 35.0395C28.476 35.2844 28.6137 35.6167 28.6137 35.963V43.7993C28.6137 44.1456 28.476 44.4779 28.2312 44.7228C27.9863 44.9677 27.654 45.1053 27.3077 45.1053Z" fill="#57009C"/>
<path d="M22.0839 45.1053C21.7375 45.1053 21.4054 44.9676 21.1605 44.7228C20.9155 44.4779 20.778 44.1456 20.778 43.7993V38.5751C20.778 38.2287 20.9155 37.8965 21.1605 37.6516C21.4054 37.4067 21.7375 37.269 22.0839 37.269C22.4302 37.269 22.7624 37.4067 23.0074 37.6516C23.2522 37.8965 23.3898 38.2287 23.3898 38.5751V43.7993C23.3898 44.1456 23.2522 44.4779 23.0074 44.7228C22.7624 44.9676 22.4302 45.1053 22.0839 45.1053Z" fill="#57009C"/>
</g>
</g>
</g>
<defs>
<clipPath id="clip0_3_413">
<rect width="64" height="62.69" fill="white" transform="translate(0.400024 0.699951)"/>
</clipPath>
<clipPath id="clip1_3_413">
<rect width="64" height="62.69" fill="white" transform="translate(0.400024 0.699951)"/>
</clipPath>
<clipPath id="clip2_3_413">
<rect width="63.996" height="62.69" fill="white" transform="translate(0.402008 0.699951)"/>
</clipPath>
</defs>
</svg>
