<svg width="65" height="64" viewBox="0 0 65 64" fill="none" xmlns="http://www.w3.org/2000/svg">
<g clip-path="url(#clip0_3_405)">
<g clip-path="url(#clip1_3_405)">
<g clip-path="url(#clip2_3_405)">
<path d="M1.06321 11.1483C1.06321 5.37783 5.74108 0.699951 11.5115 0.699951H53.3049C59.0753 0.699951 63.7532 5.37783 63.7532 11.1483V52.9416C63.7532 58.7121 59.0753 63.3899 53.3049 63.3899H11.5115C5.74109 63.3899 1.06321 58.7121 1.06321 52.9416V11.1483Z" fill="#F5EBF9"/>
<path d="M41.3872 28.1269H39.1425V24.8618C39.1425 23.303 38.433 21.8082 37.17 20.706C35.9072 19.6038 34.1942 18.9846 32.4082 18.9846C30.6222 18.9846 28.9093 19.6038 27.6464 20.706C26.3834 21.8082 25.674 23.303 25.674 24.8618V28.1269H23.4292C22.6353 28.1269 21.874 28.4021 21.3128 28.892C20.7515 29.3819 20.4362 30.0463 20.4362 30.739V42.4934C20.4362 43.1861 20.7515 43.8505 21.3128 44.3404C21.874 44.8303 22.6353 45.1055 23.4292 45.1055H41.3872C42.181 45.1055 42.9423 44.8303 43.5037 44.3404C44.0649 43.8505 44.3803 43.1861 44.3803 42.4934V30.739C44.3803 30.0463 44.0649 29.3819 43.5037 28.892C42.9423 28.4021 42.181 28.1269 41.3872 28.1269ZM33.9048 38.5752C33.9048 38.9216 33.747 39.2539 33.4663 39.4987C33.1858 39.7436 32.8051 39.8813 32.4082 39.8813C32.0113 39.8813 31.6307 39.7436 31.35 39.4987C31.0694 39.2539 30.9117 38.9216 30.9117 38.5752V34.6571C30.9117 34.3108 31.0694 33.9785 31.35 33.7336C31.6307 33.4887 32.0113 33.3511 32.4082 33.3511C32.8051 33.3511 33.1858 33.4887 33.4663 33.7336C33.747 33.9785 33.9048 34.3108 33.9048 34.6571V38.5752ZM36.1495 28.1269H28.6669V24.8618C28.6669 23.9959 29.0611 23.1654 29.7628 22.553C30.4644 21.9407 31.416 21.5967 32.4082 21.5967C33.4005 21.5967 34.3521 21.9407 35.0537 22.553C35.7553 23.1654 36.1495 23.9959 36.1495 24.8618V28.1269Z" fill="#57009C"/>
</g>
</g>
</g>
<defs>
<clipPath id="clip0_3_405">
<rect width="64" height="62.69" fill="white" transform="translate(0.800003 0.699951)"/>
</clipPath>
<clipPath id="clip1_3_405">
<rect width="64" height="62.69" fill="white" transform="translate(0.800003 0.699951)"/>
</clipPath>
<clipPath id="clip2_3_405">
<rect width="63.996" height="62.69" fill="white" transform="translate(0.801983 0.699951)"/>
</clipPath>
</defs>
</svg>
