<svg width="16" height="17" viewBox="0 0 16 17" fill="none" xmlns="http://www.w3.org/2000/svg">
<path d="M15.75 8.05005C15.75 12.3303 12.2802 15.8 8 15.8C3.71978 15.8 0.25 12.3303 0.25 8.05005C0.25 3.76983 3.71978 0.300049 8 0.300049C12.2802 0.300049 15.75 3.76983 15.75 8.05005ZM7.10356 12.1536L12.8536 6.40361C13.0488 6.20836 13.0488 5.89177 12.8536 5.69652L12.1465 4.98942C11.9512 4.79414 11.6346 4.79414 11.4393 4.98942L6.75 9.67874L4.56066 7.48939C4.36541 7.29414 4.04881 7.29414 3.85353 7.48939L3.14644 8.19649C2.95119 8.39174 2.95119 8.70833 3.14644 8.90358L6.39644 12.1536C6.59172 12.3489 6.90828 12.3489 7.10356 12.1536Z" fill="#C3B6D1"/>
</svg>
