<svg width="25" height="25" viewBox="0 0 25 25" fill="none" xmlns="http://www.w3.org/2000/svg">
<path d="M12.3147 6.98916C9.33341 6.98916 6.92872 9.39385 6.92872 12.3751C6.92872 15.3563 9.33341 17.761 12.3147 17.761C15.2959 17.761 17.7006 15.3563 17.7006 12.3751C17.7006 9.39385 15.2959 6.98916 12.3147 6.98916ZM12.3147 15.8767C10.3881 15.8767 8.8131 14.3063 8.8131 12.3751C8.8131 10.4438 10.3834 8.87354 12.3147 8.87354C14.2459 8.87354 15.8162 10.4438 15.8162 12.3751C15.8162 14.3063 14.2412 15.8767 12.3147 15.8767ZM19.1772 6.76885C19.1772 7.46729 18.6147 8.0251 17.9209 8.0251C17.2225 8.0251 16.6647 7.4626 16.6647 6.76885C16.6647 6.0751 17.2272 5.5126 17.9209 5.5126C18.6147 5.5126 19.1772 6.0751 19.1772 6.76885ZM22.7443 8.04385C22.6647 6.36104 22.2803 4.87041 21.0475 3.64229C19.8193 2.41416 18.3287 2.02979 16.6459 1.94541C14.9115 1.84697 9.7131 1.84697 7.97872 1.94541C6.3006 2.0251 4.80997 2.40947 3.57716 3.6376C2.34435 4.86572 1.96466 6.35635 1.88029 8.03916C1.78185 9.77353 1.78185 14.972 1.88029 16.7063C1.95997 18.3892 2.34435 19.8798 3.57716 21.1079C4.80997 22.336 6.29591 22.7204 7.97872 22.8048C9.7131 22.9032 14.9115 22.9032 16.6459 22.8048C18.3287 22.7251 19.8193 22.3407 21.0475 21.1079C22.2756 19.8798 22.66 18.3892 22.7443 16.7063C22.8428 14.972 22.8428 9.77822 22.7443 8.04385ZM20.5037 18.5673C20.1381 19.486 19.4303 20.1938 18.5068 20.5642C17.124 21.1126 13.8428 20.986 12.3147 20.986C10.7865 20.986 7.5006 21.1079 6.12247 20.5642C5.20372 20.1985 4.49591 19.4907 4.1256 18.5673C3.57716 17.1845 3.70372 13.9032 3.70372 12.3751C3.70372 10.847 3.58185 7.56104 4.1256 6.18291C4.49122 5.26416 5.19904 4.55635 6.12247 4.18603C7.50529 3.6376 10.7865 3.76416 12.3147 3.76416C13.8428 3.76416 17.1287 3.64228 18.5068 4.18603C19.4256 4.55166 20.1334 5.25947 20.5037 6.18291C21.0522 7.56572 20.9256 10.847 20.9256 12.3751C20.9256 13.9032 21.0522 17.1892 20.5037 18.5673Z" fill="black"/>
</svg>
